<?xml version="1.0" encoding="utf-8"?>
<!-- Generator: Adobe Illustrator 17.0.0, SVG Export Plug-In . SVG Version: 6.00 Build 0)  -->
<!DOCTYPE svg PUBLIC "-//W3C//DTD SVG 1.1//EN" "http://www.w3.org/Graphics/SVG/1.1/DTD/svg11.dtd">
<svg version="1.1" id="phnx-cn" xmlns:svg="http://www.w3.org/2000/svg"
	 xmlns="http://www.w3.org/2000/svg" xmlns:xlink="http://www.w3.org/1999/xlink" x="0px" y="0px" width="87.354px"
	 height="87.683px" viewBox="1.323 3.279 87.354 87.683" enable-background="new 1.323 3.279 87.354 87.683" xml:space="preserve">
<g id="g4886" transform="matrix(9.4727242e-2,0,0,9.4727242e-2,-96.450975,-1.6140594)">
	<path id="path2884" fill="#ED802F" d="M1474.607,976.861c-1.112-0.338,6.879-2.083,18-3.931
		c64.74-10.754,117.021-31.539,164-65.201c30.273-21.691,63.774-54.912,88.667-87.926c37.311-49.482,58.635-117.064,60.504-191.75
		c1.145-45.772-4.074-83.131-16.262-116.385c-5.908-16.119-25.289-53.637-26.854-51.983c-0.191,0.202,0.943,6.218,2.521,13.368
		c5.793,26.245,7.346,42.665,7.331,77.5c-0.017,40.969-2.754,63.99-12.02,101.134c-23.644,94.782-77.698,173.273-153.887,223.457
		c-51.82,34.133-104.515,53.805-163.5,61.037c-18.745,2.299-56.66,2.302-76,0.006c-67.145-7.969-129.375-33.75-176.5-73.121
		c-36.538-30.526-67.432-66.991-93.928-110.865c-9.073-15.024-11.999-21.174-7.446-15.649
		c21.146,25.661,48.504,53.214,69.873,70.375c45.584,36.605,96.681,61.457,148.197,72.078
		c96.237,19.841,191.691-7.227,273.254-77.485c42.449-36.566,74.201-85.083,92.426-141.229
		c6.564-20.223,10.663-38.594,13.775-61.739c2.335-17.369,2.328-52.289-0.014-68.5c-9.145-63.302-37.779-103.734-84.921-119.91
		c-15.081-5.175-25.828-6.915-43.214-6.996c-25.77-0.121-39.888,4.071-61.5,18.259c-12.088,7.936-31.352,27.531-41.925,42.647
		c-4.616,6.6-10.909,15.591-13.984,19.979c-7.585,10.824-21.657,25.28-30.687,31.522c-9.181,6.347-23.46,13.181-33.405,15.987
		c-14.264,4.025-33.282,3.659-43.442-0.837l-3.941-1.744l5.941-3.327c7.83-4.384,22.754-19.54,28.754-29.2
		c8.364-13.467,11.931-25.347,19.179-63.88c6.282-33.395,10.364-49.399,17.22-67.5c28.627-75.587,91.318-134.489,164.789-154.829
		c22.549-6.243,38.775-8.614,64.092-9.365c74.88-2.224,142.17,19.891,198.409,65.204c69.11,55.684,114.943,144.339,125.104,241.99
		c1.678,16.129,1.427,52.452-0.473,68.177c-7.589,62.833-33.822,134.291-69.226,188.574c-3.498,5.363-6.574,9.75-6.837,9.75
		s0.684-3.037,2.105-6.75c11.953-31.239,17.415-48.253,23.353-72.75c14.392-59.371,15.313-122.254,2.548-174
		c-10.345-41.935-28.738-79.847-55.391-114.169c-7.219-9.296-30.115-33.733-30.885-32.963c-0.231,0.231,2.254,5.755,5.521,12.276
		c24.019,47.935,39.248,96.925,46.372,149.17c2.016,14.781,2.275,20.796,2.277,52.686c0.001,31.793-0.262,37.928-2.25,52.5
		c-15.033,110.17-62.183,198.704-138.057,259.232c-53.501,42.68-113.321,66.617-188.183,75.302
		C1530.46,976.668,1478.347,977.998,1474.607,976.861z"/>
	<path id="path2878" fill="#ED802F" d="M1332.107,827.921c-78.511-4.583-144.502-33.683-198.019-87.319
		c-52.623-52.739-86.63-122.655-99.006-203.549c-2.738-17.898-3.827-60.102-2.042-79.189c5.068-54.203,28.791-125.155,59.157-176.93
		c7.418-12.649,17.093-27.533,17.58-27.046c0.228,0.228-1.451,5.083-3.729,10.789c-12.289,30.772-23.772,71.662-28.368,101.014
		c-3.938,25.152-4.883,41.005-4.294,72.077c0.556,29.364,1.924,42.387,6.703,63.784c11.12,49.795,36.587,99.157,69.661,135.022
		c8.447,9.159,18.358,18.662,18.358,17.601c0-0.358-2.924-6.487-6.498-13.619c-23.674-47.245-38.567-95.462-45.712-148.004
		c-1.973-14.51-2.244-20.783-2.244-52c0-31.038,0.277-37.525,2.202-51.614c11.216-82.086,40.751-154.214,85.07-207.753
		c49.825-60.19,112.573-99.78,187.181-118.099c33.311-8.179,63.36-11.583,100.913-11.432c27.399,0.111,27.735,0.369,5.089,3.913
		c-101.14,15.828-180.123,61.961-245.432,143.353c-34.982,43.597-56.369,95.663-64.956,158.132
		c-5.018,36.502-4.645,79.286,0.988,113.5c5.375,32.646,19.913,70.958,35.576,93.75c2.94,4.278,4.534,5.54,3.458,2.739
		c-1.477-3.848-6.695-32.455-8.298-45.489c-2.456-19.968-2.458-66.336-0.004-87.2c8.62-73.281,32.44-136.968,71.824-192.027
		c26.317-36.792,61.895-70.203,99.699-93.625c50.268-31.144,97.32-48.408,152.146-55.823c18.782-2.54,66.858-2.548,85-0.014
		c49.438,6.906,95.575,22.745,134.297,46.106c42.226,25.474,84.282,66.871,116.965,115.13
		c10.471,15.461,24.213,38.312,23.481,39.044c-0.259,0.259-4.668-4.606-9.798-10.81c-18.601-22.497-49.747-51.97-74.638-70.63
		c-45.193-33.88-99.22-57.055-152.07-65.232c-19.381-2.999-57.386-3.759-76.591-1.533c-32.558,3.774-62.756,12.141-93.146,25.806
		c-44.957,20.216-95.353,58.462-123.608,93.808c-38.655,48.356-62.672,106.718-69.957,170c-1.573,13.667-1.591,46.775-0.031,59.5
		c5.893,48.081,24.123,85.289,52.331,106.807c13.332,10.171,27.281,16.587,46.721,21.49c9.712,2.45,12.121,2.656,30.544,2.618
		c22.554-0.047,29.341-1.295,43.5-7.998c23.785-11.26,43.507-29.539,63.57-58.918c15.854-23.216,24.755-33.584,36.284-42.265
		c20.402-15.364,46.29-23.662,66.068-21.179c7.382,0.927,18.104,3.824,18.049,4.876c-0.016,0.312-2.792,2.142-6.169,4.067
		c-7.73,4.407-19.842,16.361-26.113,25.772c-9.804,14.714-13.622,26.66-20.687,64.728c-8.095,43.614-15.104,66.916-27.977,93
		c-34.464,69.837-96.438,119.219-169.421,134.999C1384.47,826.645,1353.095,829.146,1332.107,827.921z"/>
	<path id="path2874" fill="#ED802F" d="M1444.107,555.074c-4.125-0.79-10.023-2.31-13.106-3.376
		c-6.754-2.336-14.458-7.024-13.259-8.069c0.476-0.414,4.333-1.989,8.571-3.5c13.341-4.756,26.217-15.514,43.324-36.198
		c10.274-12.422,18.692-20.153,26.446-24.285c19.973-10.646,54.047-9.182,71.24,3.06l3.115,2.218l-6.629,2.236
		c-3.646,1.23-9.448,3.734-12.892,5.564c-7.155,3.802-23.145,18.61-31.669,29.328c-14.538,18.28-27.342,28.099-41.64,31.934
		C1468.983,556.301,1453.182,556.813,1444.107,555.074z"/>
</g>
</svg>
